:version 1.10
:name ASF
:units
  mass 1
  length 1
  angle deg
:documentation
  ASF file generated by Kaydara
:root
  axis xyz
  order  tx ty tz rx ry rz
  position 0 0 0
  orientation 0 0 0
:bonedata
  begin
    id 1
    name RightUpLegDummy
    direction -0.718183 -0.695806 0.00816078
    length 4.904
    axis 0 0 0 xyz
  end
  begin
    id 2
    name RightUpLeg
    direction -0.0736652 -0.994202 0.0783343
    length 17.4976
    axis -2.72909 -3.00389 -4.00133 xyz
    dof rx ry rz
  end
  begin
    id 3
    name RightLeg
    direction -0.0389037 -0.994596 -0.0962598
    length 16.5821
    axis 3.95836 -18.5909 -4.46993 xyz
    dof rx ry rz
  end
  begin
    id 4
    name RightFoot
    direction -0.311643 -0.412678 0.855906
    length 3.77069
    axis -1.99483 -18.8351 -3.27644 xyz
    dof rx ry rz
  end
  begin
    id 5
    name RightToes
    direction -0.317852 0.0389852 0.947339
    length 3.85082
    axis -2.00228 -18.1713 -3.25211 xyz
    dof rx ry rz
  end
  begin
    id 6
    name SpineDummy
    direction 8.3039e-015 1 4.44677e-016
    length 4.6813
    axis 0 0 0 xyz
  end
  begin
    id 7
    name Spine
    direction -0.000262373 0.999988 0.00493267
    length 10.1015
    axis -0.00246081 0.00062579 0.0150362 xyz
    dof rx ry rz
  end
  begin
    id 8
    name Spine1
    direction 0 0 0
    length 0
    axis -0.00349562 0.000650293 0.0196666 xyz
    dof rx ry rz
  end
  begin
    id 9
    name HEadDummy
    direction -0.000343232 0.999999 0.00123745
    length 3.43865
    axis -0.00349562 0.000650293 0.0196666 xyz
  end
  begin
    id 10
    name HEad
    direction -0.0461221 0.980933 0.188796
    length 5.12695
    axis -0.00351404 -7.04812 0.0199272 xyz
    dof rx ry rz
  end
  begin
    id 11
    name LeftShoulder1Dummy
    direction 0.998904 -0.0399089 -0.0244534
    length 3.5433
    axis -0.00349562 0.000650293 0.0196666 xyz
  end
  begin
    id 12
    name LeftShoulder1
    direction 0.99951 1.64443e-005 0.0312999
    length 4.05031
    axis -0.00349562 0.000650293 0.0196666 xyz
    dof rx ry rz
  end
  begin
    id 13
    name LeftArm
    direction 0.984791 0.0515299 0.165927
    length 12.9126
    axis -64.823 -10.7743 5.20463 xyz
    dof rx ry rz
  end
  begin
    id 14
    name LeftForeArm
    direction 0.984968 0.0534808 0.16425
    length 10.8596
    axis -30.0462 -7.70601 1.87451 xyz
    dof rx ry rz
  end
  begin
    id 15
    name LeftHand
    direction 0.975871 0.0289682 0.216418
    length 6.62295
    axis -20.1348 -6.98077 1.86072 xyz
    dof rx ry rz
  end
  begin
    id 16
    name RightShoulderDummy
    direction -0.998877 -0.0405946 -0.0244307
    length 3.5433
    axis -0.00349562 0.000650293 0.0196666 xyz
  end
  begin
    id 17
    name RightShoulder
    direction -0.998933 -0.0249743 -0.0388558
    length 4.05031
    axis -0.0205316 -4.02113 1.41395 xyz
    dof rx ry rz
  end
  begin
    id 18
    name RightArm
    direction -0.997559 0.068664 0.0127103
    length 12.9638
    axis -67.3882 1.84188 -6.15987 xyz
    dof rx ry rz
  end
  begin
    id 19
    name RightForeArm
    direction -0.991508 0.0912848 0.0926241
    length 10.8312
    axis -22.1975 3.41087 -4.28711 xyz
    dof rx ry rz
  end
  begin
    id 20
    name RightHand
    direction -0.989262 0.0600788 0.133232
    length 6.57864
    axis -12.2911 2.17515 -4.39675 xyz
    dof rx ry rz
  end
  begin
    id 21
    name LeftUpLegDummy
    direction 0.718183 -0.695806 0.00816078
    length 4.904
    axis 0 0 0 xyz
  end
  begin
    id 22
    name LeftUpLeg
    direction 0.0831398 -0.99469 0.0606531
    length 17.4976
    axis -1.71016 2.29552 4.63832 xyz
    dof rx ry rz
  end
  begin
    id 23
    name LeftLeg
    direction 0.0498442 -0.991778 -0.117862
    length 16.5821
    axis 5.13757 15.5727 5.13348 xyz
    dof rx ry rz
  end
  begin
    id 24
    name LeftFoot
    direction 0.269026 -0.433896 0.85986
    length 3.77069
    axis -0.576502 15.6961 4.10267 xyz
    dof rx ry rz
  end
  begin
    id 25
    name LeftToes
    direction 0.277311 0.0251143 0.960452
    length 3.85048
    axis -0.576502 15.6961 4.10267 xyz
    dof rx ry rz
  end
:hierarchy
  begin
    root RightUpLegDummy SpineDummy LeftUpLegDummy
    RightUpLegDummy RightUpLeg
    RightUpLeg RightLeg
    RightLeg RightFoot
    RightFoot RightToes
    SpineDummy Spine
    Spine Spine1
    Spine1 HEadDummy LeftShoulder1Dummy RightShoulderDummy
    HEadDummy HEad
    LeftShoulder1Dummy LeftShoulder1
    LeftShoulder1 LeftArm
    LeftArm LeftForeArm
    LeftForeArm LeftHand
    RightShoulderDummy RightShoulder
    RightShoulder RightArm
    RightArm RightForeArm
    RightForeArm RightHand
    LeftUpLegDummy LeftUpLeg
    LeftUpLeg LeftLeg
    LeftLeg LeftFoot
    LeftFoot LeftToes
  end

:SAMPLES-PER-SECOND 30
:FULLY-SPECIFIED
:DEGREES
107
root  -3.2467 28.7736 64.8536 -159.629 5.61754 -179.282
RightUpLeg  -49.7859 -9.23763 -2.79546
RightLeg  99.1141 20.0364 -18.1992
RightFoot  0.817002 -2.05355 15.8185
RightToes  -1.16415e-010 -3.18055e-015 -2.98177e-016
Spine  34.4254 0.233579 0.958707
Spine1  -6.08849 0.984232 -14.1653
HEad  -21.7633 -0.0494463 -0.173908
LeftShoulder1  -3.88251e-019 9.70628e-020 -3.87848e-018
LeftArm  -25.1782 32.6909 -34.563
LeftForeArm  4.87543 -50.3371 14.3127
LeftHand  -6.03071 -8.79164 48.086
RightShoulder  5.14487 9.56328 24.7317
RightArm  23.0415 -46.9705 17.8449
RightForeArm  0.562373 30.5627 -16.5217
RightHand  -1.85133 1.75383 -29.128
LeftUpLeg  -71.5457 2.99858 -8.68556
LeftLeg  85.1587 -13.2395 11.7696
LeftFoot  -35.8636 0.281455 1.88199
LeftToes  1.69338e-011 3.79281e-011 -2.20049e-011
108
root  -3.18944 29.0055 64.221 -160.276 5.17805 -179.086
RightUpLeg  -54.9197 -10.8423 -0.0121214
RightLeg  100.167 21.1284 -20.5526
RightFoot  -3.60868 -0.637754 7.56888
RightToes  -1.16415e-010 -3.18055e-015 -2.98177e-016
Spine  34.6093 0.141819 -0.292544
Spine1  -5.56066 0.561029 -12.2969
HEad  -21.4297 0.795489 0.257215
LeftShoulder1  -3.88251e-019 9.70628e-020 -3.87848e-018
LeftArm  -24.1245 29.5469 -34.0026
LeftForeArm  5.95455 -49.7433 14.0584
LeftHand  -6.01266 -8.8722 47.712
RightShoulder  5.13618 9.49477 24.8128
RightArm  25.2545 -49.1547 14.2437
RightForeArm  0.513053 33.4809 -18.294
RightHand  -1.62401 1.88148 -25.2126
LeftUpLeg  -68.8766 2.93626 -8.16142
LeftLeg  84.6206 -13.1405 11.6156
LeftFoot  -37.2782 0.211996 1.4647
LeftToes  1.69338e-011 3.79281e-011 -2.20049e-011
109
root  -3.18431 29.2776 63.5414 -161.42 5.35938 -178.42
RightUpLeg  -60.4029 -11.5616 3.40321
RightLeg  98.9761 21.3015 -22.4753
RightFoot  -10.3325 -0.0819551 5.11519
RightToes  -1.16415e-010 -3.18055e-015 -2.98177e-016
Spine  34.7757 0.171648 -0.88801
Spine1  -4.38681 0.118919 -9.73815
HEad  -21.3626 1.74864 0.780536
LeftShoulder1  -3.88251e-019 9.70628e-020 -3.87848e-018
LeftArm  -23.2401 26.9151 -33.6023
LeftForeArm  7.01049 -48.5713 13.516
LeftHand  -6.10826 -9.10983 47.6565
RightShoulder  5.05542 9.34634 24.6328
RightArm  26.5076 -50.8379 11.0872
RightForeArm  0.503554 37.1905 -20.7756
RightHand  -1.21094 1.81101 -19.0636
LeftUpLeg  -65.4582 3.37527 -7.25434
LeftLeg  84.0619 -13.036 11.5341
LeftFoot  -38.8599 0.0890708 0.852974
LeftToes  1.69338e-011 3.79281e-011 -2.20049e-011
110
root  -3.1892 29.4795 62.8782 -162.682 6.03615 -177.605
RightUpLeg  -66.3497 -11.1659 7.10186
RightLeg  95.2723 20.1008 -23.4921
RightFoot  -13.8333 0.0671123 4.89534
RightToes  -1.16415e-010 -3.18055e-015 -2.98177e-016
Spine  35.0835 0.363639 -1.53379
Spine1  -3.17888 -0.39727 -6.7975
HEad  -21.346 2.82052 1.29427
LeftShoulder1  -3.88251e-019 9.70628e-020 -3.87848e-018
LeftArm  -22.2266 25.3063 -33.1855
LeftForeArm  7.29723 -47.0647 12.799
LeftHand  -6.24526 -9.33742 47.9212
RightShoulder  4.9326 9.20425 24.1923
RightArm  26.8172 -52.1667 8.4434
RightForeArm  0.349654 41.1931 -23.8139
RightHand  -0.742363 1.2443 -12.7583
LeftUpLeg  -62.0488 4.20089 -6.32586
LeftLeg  83.7141 -12.9654 11.6426
LeftFoot  -40.4109 -0.0567172 0.220289
LeftToes  1.69338e-011 3.79281e-011 -2.20049e-011
111
root  -3.18396 29.5288 62.2213 -163.881 6.69443 -176.817
RightUpLeg  -71.4571 -10.0858 10.5049
RightLeg  89.7244 17.7527 -22.8004
RightFoot  -14.2741 0.0778531 3.70862
RightToes  -1.16415e-010 -3.18055e-015 -2.98177e-016
Spine  35.449 0.452437 -2.18132
Spine1  -2.25095 -1.07574 -3.92117
HEad  -20.8919 3.85438 1.76935
LeftShoulder1  -3.88251e-019 9.70628e-020 -3.87848e-018
LeftArm  -21.0842 24.5672 -32.7783
LeftForeArm  7.21551 -45.4052 12.0399
LeftHand  -6.08389 -9.17288 47.2913
RightShoulder  4.81366 9.11485 23.6657
RightArm  26.3292 -53.2055 6.23866
RightForeArm  -0.538014 44.9446 -27.0839
RightHand  -0.435162 0.687647 -8.21476
LeftUpLeg  -59.0613 4.90121 -5.48954
LeftLeg  83.851 -12.9742 12.2329
LeftFoot  -41.9445 -0.234903 -0.46598
LeftToes  1.69338e-011 3.79281e-011 -2.20049e-011
112
root  -3.1704 29.4571 61.5666 -164.926 7.18361 -175.929
RightUpLeg  -75.1613 -8.60044 13.3438
RightLeg  83.2149 15.1929 -19.4382
RightFoot  -14.2161 0.0831384 4.50319
RightToes  -1.16415e-010 -3.18055e-015 -2.98177e-016
Spine  35.8201 0.34585 -2.39713
Spine1  -1.6956 -1.87124 -1.20488
HEad  -19.8417 4.69859 2.30395
LeftShoulder1  -3.88251e-019 9.70628e-020 -3.87848e-018
LeftArm  -20.0751 24.4548 -32.5776
LeftForeArm  7.56297 -43.8372 11.3898
LeftHand  -5.49908 -8.61404 44.7844
RightShoulder  4.70095 9.03046 23.1596
RightArm  24.8924 -54.0023 4.58332
RightForeArm  -1.91448 48.2229 -30.3954
RightHand  -0.319687 0.974893 -5.75146
LeftUpLeg  -56.6322 5.11389 -4.47346
LeftLeg  84.6034 -13.1116 13.2121
LeftFoot  -43.2172 -0.537496 -1.55694
LeftToes  1.69338e-011 3.79281e-011 -2.20049e-011
113
root  -3.13566 29.295 60.9254 -165.806 7.78918 -175.032
RightUpLeg  -77.4922 -6.56034 15.6074
RightLeg  75.8617 13.6508 -13.3758
RightFoot  -14.1629 0.0952914 6.97658
RightToes  -1.16415e-010 -3.18055e-015 -2.98177e-016
Spine  36.2021 0.287683 -2.37134
Spine1  -1.31876 -2.55578 1.3579
HEad  -18.7659 5.33293 2.98188
LeftShoulder1  -3.88251e-019 9.70628e-020 -3.87848e-018
LeftArm  -19.5215 24.7428 -32.9467
LeftForeArm  8.56055 -42.0693 10.7301
LeftHand  -4.96943 -8.20797 42.044
RightShoulder  4.58837 8.91839 22.7002
RightArm  22.224 -54.6651 3.58188
RightForeArm  -2.80751 51.3017 -34.0964
RightHand  -0.268511 1.87529 -4.24679
LeftUpLeg  -54.7391 4.96555 -3.31149
LeftLeg  86.1023 -13.4501 14.1108
LeftFoot  -43.9256 -1.01575 -3.24737
LeftToes  1.69338e-011 3.79281e-011 -2.20049e-011
